<?xml version="1.0" encoding="utf-8"?>
<!-- Generator: Adobe Illustrator 23.0.1, SVG Export Plug-In . SVG Version: 6.00 Build 0)  -->
<svg version="1.1" id="Layer_1" xmlns="http://www.w3.org/2000/svg" xmlns:xlink="http://www.w3.org/1999/xlink" x="0px" y="0px"
	 viewBox="0 0 960 815" style="enable-background:new 0 0 960 815;" xml:space="preserve">
<style type="text/css">
	.st0{fill:#28A560;}
	.st1{fill:#227F4A;}
	.st2{fill:#06442D;}
	.st3{opacity:0.73;fill:#043823;enable-background:new    ;}
	.st4{opacity:0.6;fill:#0E5136;enable-background:new    ;}
	.st5{fill:#FFDDD2;}
	.st6{fill:#57585B;}
	.st7{fill:#717377;}
	.st8{fill:#F8D545;}
	.st9{fill:#FFFFFF;}
	.st10{fill:#1A7566;}
	.st11{fill:#146858;}
</style>
<title>a6</title>
<g>
	<path d="M665.7,759c-14.1,3.9-27.4,10.5-39,19.4c-1.6,1.2-3.3,2.7-3.8,4.8c-0.5,2.7,0.7,5.3,3,6.8c2.1,1.3,4.5,1.6,6.9,1.7
		c15.5,0.8,31-0.9,45.9-4.9c8-2.1,17-5.9,19.7-14.8c0.8-2.7,0.9-5.9-0.8-8.1c-1-1.2-2.4-2-3.9-2.5c-11.6-4.4-24.3-2.4-36.4-0.3"/>
	<path d="M903.7,736c-10.8,11.4-19.5,24.6-25.8,38.9c-0.9,2-1.7,4.2-1.3,6.3c0.6,2.5,2.9,4.3,5.5,4.3c2.4,0,4.6-1.2,6.8-2.4
		c14-8.2,26.9-18.3,38.1-30.1c6.1-6.3,12.3-14.7,10.9-23.9c-0.4-2.8-1.8-5.7-4.1-6.6c-1.4-0.5-3-0.5-4.4,0
		c-12,2.7-22.2,11.6-31.9,20.2"/>
	<path d="M315.6,790.5L315.6,790.5c-9.3,0-16.9-7.6-17-16.9v-60.8c0-9.4,7.6-17,17-17l0,0c9.4,0,17,7.6,17,17v60.8
		C332.5,782.9,325,790.5,315.6,790.5z"/>
	<path d="M584.5,790.5L584.5,790.5c-9.4,0-17-7.6-17-16.9v-60.8c0-9.4,7.6-17,17-17l0,0l0,0c9.4,0,16.9,7.6,16.9,17v60.8
		C601.4,782.9,593.8,790.5,584.5,790.5z"/>
	<g>
		<path class="st0" d="M403.4,577.2c-0.5-7.1-9.3-9-14.3-5.5c-33.8,23.8-54,60.4-68.6,98.4c-3.7-22.7-8.3-45.4-13.5-67.9
			c29.2-7.3,50.1-35.3,62.9-61.1c14.6-29.8,19.7-63.3,14.6-96.1c-1-6.3-9.4-10.2-14.5-5.6c-30.3,27.8-55.5,62.5-70.3,101
			c-1.9,4.9-3.5,9.9-4.9,14.9c-5.5-19.3-11.4-38.5-18.3-57.4c22.3-13.9,37-41.1,43.2-65.8c7.3-29.5,4.2-60.7-8.8-88.2
			c-2.4-5.1-11-7.3-14.3-1.6c-19,33.4-31.3,70.2-36.1,108.3c-0.3,2.2-0.5,4.4-0.7,6.6c-8-16.9-17.2-33.2-27.6-48.7
			c8.5-8,13.4-17.8,17.5-29c5.3-14.4,8.9-29.4,10.6-44.6c2.8-26.7-2.6-55.2-21.4-75.3c-3.3-3.6-9.9-4.5-12.9,0.2
			c-10.3,16.3-14.8,35.2-17.2,54.1c-2.4,19.4-2.4,39,0.1,58.3c0.2,1.8,0.5,3.7,0.8,5.6c-0.8-1-1.5-1.9-2.3-2.9
			c-11.2-13.8-23-26.9-35.2-39.7c4.7-20.2-7.1-41.5-21.4-55.3c-18.7-18.1-43.9-26.4-68.7-32.1c-4.6-1-7.8,3.9-7.4,7.8
			c2.3,21.7,16.7,40.8,31.7,55.7c14.5,14.5,31.9,26.3,52.6,28.6c11.5,12.7,23,25.6,33.8,38.8c-35.8-10.2-73.7-10.6-109.7-1.2
			c-7,1.8-10.3,10.9-3.8,15.7c30.2,22.4,67.9,32.5,105.2,28.3c9.1-1.1,18-3,26.7-5.8c2.4-0.8,5.1-1.5,7.6-2.5
			c9,13,17.1,26.7,24.3,40.9c2.1,4.2,4.2,8.5,6.1,12.8c-36.1-16.3-76.4-21.2-115.4-14c-5.3,1-9,6.9-6.5,12.1
			c19.1,39.2,65.1,45,104,44c9.4-0.2,18.8-0.8,27.7-4.2c1.6-0.6,3.2-1.3,4.7-2.2c5.8,16,10.9,32.2,15.7,48.4
			c0.6,2.1,1.2,4.2,1.8,6.3c-33.4-19.8-80.4-17.8-116.9-14.4c-6.4,0.6-8.9,7.7-7,13c14.8,41.3,69.1,54.3,108,53.2
			c9-0.3,19.5-0.5,28.5-3.2c3.5,15.1,6.7,30.3,9.5,45.5c0.8,4.3,1.6,8.7,2.3,13.1c-11-9.8-23.8-17.2-37.7-21.9
			c-13.5-4.7-27.7-7.3-41.9-8.8c-12.5-1.4-29-4.8-40.6,1.7c-4.3,2.4-6.7,7.1-4.6,11.9c10.2,23.3,29.8,41,52.7,51.4
			c24.6,11.2,52.1,13.2,78.8,10.9c2.5,19.7,4.4,39.5,5.7,59.3c0.6,8.9,14.3,6.7,13.7-2.2c-1.3-18.9-3.1-37.8-5.4-56.7
			c25.6-8.2,46.2-30.5,59.1-53.4C399.2,632.8,405.5,605,403.4,577.2z"/>
		<path class="st1" d="M362,593.1c-2.7-5.2-10-3.9-12.6,0.4c-18.1,28.9-22,63.2-20.9,96.8c-10.1-16.2-20.7-32-31.9-47.4
			c19.9-14.9,26.9-42.8,28.5-66.5c1.6-27.3-5.2-54.5-19.5-77.9c-2.8-4.5-10.4-4.8-12.8,0.4c-14.2,30.8-22.4,65.3-21.4,99.4
			c0.1,4.3,0.5,8.6,1,12.9c-10.3-12.9-21-25.7-32.2-37.9c12.5-17.7,15.1-43.1,12-63.9c-3.9-24.8-16.2-47.5-34.9-64.3
			c-3.4-3.1-10.7-2-11.4,3.3c-3.9,31.5-1.5,63.4,7,94c0.5,1.8,1,3.5,1.5,5.2c-11.5-10.4-23.7-19.8-36.6-28.3
			c4-8.8,4.5-17.8,4.1-27.7c-0.5-12.7-2.6-25.2-6.1-37.4c-6.3-21.2-19.6-41.2-40.3-50.6c-3.7-1.7-9-0.3-9.8,4.3
			c-2.7,15.7-0.1,31.5,4.1,46.7c4.3,15.5,10.6,30.4,18.6,44.4c0.8,1.3,1.6,2.7,2.4,4l-2.7-1.4c-12.9-6.9-26.1-13.2-39.5-19.1
			c-2.8-16.9-18.6-29.3-33.9-35.3c-20-7.8-41.8-6.1-62.5-2.6c-3.8,0.7-4.7,5.5-3.2,8.3c8.7,15.8,25.7,25.7,41.9,32.4
			c15.7,6.4,32.7,9.9,49.1,5c12.9,6,25.6,12.2,38.2,18.8c-30.5,3.6-59.5,15.4-84,34c-4.7,3.6-4.4,11.6,2.1,13.2
			c30.2,7.4,62,3.1,89.2-12c6.6-3.7,12.7-8,18.5-12.9c1.6-1.3,3.4-2.8,5-4.3c11,7.1,21.6,14.9,31.5,23.4c3,2.6,5.9,5.2,8.7,7.8
			c-32.7-1-65,8.1-92.4,26.1c-3.7,2.4-4.7,8.1-1.1,11.3c27,23.8,63.9,13.6,93.3,0.4c7.1-3.2,14.1-6.6,19.8-12c1-1,2-2,2.9-3.2
			c9.5,10.3,18.6,21,27.4,31.9c1.1,1.4,2.2,2.8,3.4,4.2c-31.8-4.4-66.9,12.1-93.7,26.3c-4.7,2.5-4.3,8.7-1.2,12.1
			c24.5,26.8,70,19.3,99.3,6.2c6.8-3,14.7-6.6,20.7-11.5c7.5,10.4,14.7,20.9,21.8,31.7c2,3.1,4,6.1,5.9,9.2
			c-11.5-3.9-23.6-5.5-35.7-4.7c-11.8,0.9-23.4,3.2-34.8,6.7c-10,3-23.7,5.6-30.4,14.2c-2.5,3.2-2.8,7.6,0.3,10.6
			c15.2,14.5,35.7,21.7,56.5,22.4c22.3,0.7,43.9-6.5,63.5-16.8c8.1,14.2,15.9,28.7,23.2,43.4c3.3,6.6,13,0.5,9.8-6.1
			c-7-14-14.4-27.8-22.2-41.4c16.9-14.4,25.5-38,28-59.5C376.4,636.8,372.4,613.7,362,593.1z"/>
		<g>
			<image style="overflow:visible;opacity:0.3;enable-background:new    ;" width="960" height="815" xlink:href="a61.png" >
			</image>
			<path class="st2" d="M560.8,452.5c-5.5,6.4-12.4,11.4-20.2,14.7c-13.5,5.6-29.1,5-43.1,0.8s-26.8-11.8-39-20.1
				c-11.7-7.9-22.9-16.5-33.6-25.6c-6.4-5.5-12.8-11.4-16.6-18.9c-11.2-22.2,1.9-52.9,16.7-70.6c12.6-15.1,31-26.5,50.5-30.2
				c3.9-0.7,7.8-1.2,11.7-1.3c18.1-1,36.5,2.4,54.6-0.4c11.1-1.7,6-4.4,4.7-14.7c-0.2-1.9,1.5-23.9,3-23
				c7.2,4.1,11.4,12.1,10.6,20.3c4.6-6.8,11.6-11.5,19.5-13.2c-1.5,6.6-3.1,13.1-4.6,19.7c6.4-3.5,13.6-5.1,20.8-4.5
				c1.4,0,2.8,0.4,4,1.2c3.6,3-0.4,8.7-4.3,11.2c-7.9,5-16.4,8.9-25.3,11.6c15.4,32.3,19,69.1,10.1,103.8
				C576.8,427.5,570.4,441.7,560.8,452.5z"/>
			<path class="st3" d="M560.8,452.5c-5.5,6.4-12.4,11.4-20.2,14.7c-13.5,5.6-29.1,5-43.1,0.8s-26.8-11.8-39-20.1
				c-11.7-7.9-22.9-16.5-33.6-25.6c-6.4-5.5-12.8-11.4-16.6-18.9c-11.2-22.2,1.9-52.9,16.7-70.6c12.6-15.1,31-26.5,50.5-30.2
				c3.9-0.7,7.8-1.2,11.7-1.3c-7.6,11.1-13.9,23.2-18.6,35.8c-4.7,12.8-7.9,26.5-6.8,40.1c2.3,27,22,50.4,46.2,62.6
				C524.4,448,542.5,451.7,560.8,452.5z"/>
			<path class="st4" d="M557.5,413.3c-2.4,4.2-5.4,8.3-9.5,10.8s-9.5,3.5-13.9,1.4c-7-3.5-8.4-13.2-6.4-20.8s6.5-14.4,8-22.1
				c1.2-6,0.4-12.2,0.4-18.4s1.1-12.7,5.2-17.2c14.2-16,22.7,9.1,24.4,19.5C568.5,382.5,565.5,399.1,557.5,413.3z"/>
			<path class="st5" d="M580.7,307.8c-3.1-1.5-6.3-2.9-9.8-3.2c0.2,3.9,2.2,7.5,5.4,9.8c-10.1-1.4-19.6-5.5-29.4-8.1
				c-1.3-0.3-3.1-0.5-3.9,0.6c-0.7,1-0.2,2.3,0.4,3.3c1.9,3,4.9,5.1,7.8,7l-7-2.1c-0.9-0.3-1.8-0.5-2.7-0.4c-0.9,0-1.7,0.7-2.1,1.5
				c-0.3,1.1,0.6,2.2,1.4,3c2.2,2.1,4.8,3.8,7.6,5.1c-3.2-1-6.5-1.8-9.8-2.3c-0.7-0.2-1.5-0.1-2.2,0.2c-0.8,0.6-1,1.7-0.6,2.6
				c0.4,0.9,1.1,1.6,1.8,2.2c2.4,2,5.1,3.8,7.9,5.3l-6.1-1.6c-0.6-0.2-1.3-0.3-2-0.1c-1.3,0.4-1.6,2.3-1,3.5c0.8,1.1,1.9,2,3.2,2.5
				c17.8,8.6,37.6,12.2,57.3,10.4c1.9-7.5,2.7-15.2,2.3-22.8c-0.2-3.8-1.1-7.4-4.5-9.5C590.5,311.8,585.3,310,580.7,307.8z"/>
			<path class="st6" d="M758.8,380c0,0-80.3,93.5-98.4,382.4l39.1,4.8c0,0,68.1-229.4,119.3-256.9
				C818.8,510.3,803.6,349.8,758.8,380z"/>
			<path class="st7" d="M757.6,386.7c0,0,14.5,239.2,144.6,350.4l29.4-17.7c0,0-88.9-282.8-80.3-340.4
				C851.3,379,820,348.6,757.6,386.7z"/>
			<path class="st8" d="M732.4,169.6l-58.8,134.9l-81,7.8c0,0-1.6,31.7,1.6,35c2.5,2.6,55.3,9.1,83.8,11c13.8,0.9,26.7-6.5,33-18.7
				l24.7-48.2l-17.9,136.2c0,0,103.8,1.8,150.3-12.2l-29-116.7L830,170.3L732.4,169.6z"/>
			<path class="st5" d="M682.9,135c2.5,6.2,5.3,12.5,9.7,17.6c13.1,15.3,36.1,17,51.4,3.9l1.2-1c13.8-13,15-34,14.2-52.7
				c-0.3-7.6-0.9-15.3-3.1-22.6c-6.3-21-28.3-36.9-50.4-35c-17.5,1.4-33.3,14.5-38.5,30.9c-3,9.6,0.9,15.5,3.5,24.6
				C674.3,112.4,678.3,123.8,682.9,135z"/>
			<path class="st9" d="M759.6,76.8c-4.4,2-8.6,4.8-12.8,7.3c-2.1,1.3-5,2.3-6.8,4.1c-0.7-1.3-1.6-2.5-2.5-3.6
				c-6.4-7.4-15.1-6.5-20.7-1c-3.9,3.7-6.3,8.7-6.6,14c-3.6-1-7.4-0.4-10.5,1.7c-1.6,1-3,2.2-4,3.8c-0.6-1-1.4-2-2.1-2.9
				c-6.4-7.4-15.1-6.5-20.7-1c-4.8,4.5-7.2,11.1-6.5,17.7c1.6,11.4,13.2,22.3,24.9,15.1c8.6-5.3,9.8-16.2,6.3-24.9
				c1.2-1.6,2-3.2,3.9-4.4c2.8-1.8,5.5-1.8,8.6-1.1h0.1c1.7,11.4,13.3,22.2,24.9,15c8.8-5.4,9.8-16.7,6-25.6
				c2.8-0.6,5.5-2.8,7.9-4.1c4.1-2.3,8.5-4.5,12.3-7.3C763.2,78.3,761.2,76.1,759.6,76.8z M690.9,127.9c-8.1,6.7-17.9-0.2-20.1-8.9
				c-1.4-5.3,0.4-14.3,5.2-18.5c0.6-0.4,1.2-0.8,1.8-1.1c1.1-0.6,2.3-1,3.5-1.2c1.1-0.1,2.2,0,3.3,0.3c0.3,0.1,0.5,0.1,0.8,0
				c2.7,0.9,5.1,2.8,6.6,5.2C696.9,110.8,698.2,121.9,690.9,127.9L690.9,127.9z M734.7,112.4c-8.1,6.7-17.9-0.2-20.1-8.9
				c-1.4-5.3,0.4-14.3,5.2-18.5c0.6-0.4,1.2-0.8,1.8-1.1c1.1-0.6,2.3-1,3.5-1.2c1.1-0.1,2.2,0,3.3,0.3c0.3,0.1,0.5,0.1,0.8,0
				c2.7,0.9,5.1,2.8,6.6,5.2C740.8,95.3,742,106.4,734.7,112.4L734.7,112.4z"/>
			<path d="M905,198c-0.4-13.2-5.7-26.5-15.9-34.9c-7.8-6.4-18-9.8-24.8-17.3c-12.1-13.6-10-33.6-14.1-50.1
				C838,46.2,770.2,1.3,720,10c-12.4,2.2-24.5,6.5-34.7,13.7C673.5,32,667.5,42.2,663,55.4c-2.7,7.7-23.6,26.1-12.9,34.2
				c2.9,2.2,7,1.3,10.5,0.3c13.7-4.3,26.7-10.3,38.8-18.1c-1.8,1.7-1.7,5.2,0.6,6.4c1.1,0.5,2.3,0.7,3.5,0.6
				c6-0.2,11.9-1.1,17.7-2.8c8.3-2,16.4-4.8,24-8.6c4.5,9.9,5.3,21.6,3.4,32.2c-3,17-11.4,32.5-17.6,48.6s-10.2,34.3-4,50.5
				c5.7,14.4,18.6,24.8,33.9,27.3c-3.6,5.8-3,13.3-1.1,19.8c5.5,18.6,21.5,33.3,40.1,38.9s39.3,2.4,56.3-7s30.4-24.6,39.3-41.8
				C901.4,224.1,905.4,211.1,905,198z"/>
			<path class="st10" d="M587.6,433.6l-12.2,279.5l-2.9,66c-0.3,7.6-7.8,13.7-16.9,13.7H344c-9.1,0-16.6-6.1-16.9-13.7l-15.1-345.5
				c-0.4-8.1,7.3-14.8,17-14.8h241.8C580.3,418.9,588,425.6,587.6,433.6z"/>
			<path class="st11" d="M575.4,713.2l-2.9,66c-0.3,7.6-7.8,13.7-16.9,13.7H344c-9.1,0-16.6-6.1-16.9-13.7l-15.1-345.5
				c-0.4-8.1,7.3-14.8,17-14.8h20C359.2,510.9,401.8,690.8,575.4,713.2z"/>
			<path class="st11" d="M578.9,450.4H320.6c-13.3,0-24-10.7-24-24l0,0c0-13.3,10.7-24,24-24h258.3c13.3,0,24,10.7,24,24l0,0
				C602.9,439.7,592.2,450.4,578.9,450.4z"/>
			<path class="st9" d="M527.2,627.9l-7.6-13.2l-14.8,8.6l7.6,13.2c4,6.9,1.6,15.7-5.3,19.7c-2.2,1.3-4.7,1.9-7.2,1.9H456l0.1-10.3
				c0-2-1.5-3.2-2.6-2.2l-22.8,18.8c-1.2,1.2-1.2,3.2,0,4.4l22.6,19.1c1.2,1,2.7-0.2,2.7-2.2l0.1-10.6h44
				c17.4,0,31.5-14.1,31.5-31.5C531.4,638.1,530,632.7,527.2,627.9L527.2,627.9z"/>
			<path class="st9" d="M451.8,545.8c5.2,0,9.9,2.7,12.5,7.2l20,34.6l-9.3,5c-1.7,0.9-2.1,2.8-0.7,3.4l27.5,11
				c1.7,0.4,3.4-0.5,3.9-2.1l5.9-29c0.3-1.5-1.5-2.2-3.2-1.3l-9,4.8l-20.2-35c-8.7-15.1-28-20.2-43.1-11.5
				c-4.8,2.8-8.8,6.7-11.5,11.5L410,569.6l14.8,8.6l14.5-25.1C441.8,548.5,446.6,545.8,451.8,545.8z"/>
		</g>
		<path class="st9" d="M413.9,584c-0.5-1.6-2.3-2.5-3.9-2.1L382.6,593c-1.4,0.6-1,2.5,0.7,3.4l8.6,4.6l-15.5,26.9
			c-8.7,15.1-3.5,34.3,11.5,43c4.8,2.8,10.2,4.2,15.8,4.2h13.8V658h-13.8c-8,0-14.4-6.5-14.4-14.5c0-2.5,0.7-5,1.9-7.2L407,609
			l9.8,5.2c1.7,0.9,3.5,0.2,3.2-1.3L413.9,584z"/>
	</g>
</g>
</svg>
